<?xml version="1.0" encoding="iso-8859-1"?>
<!-- Generator: Adobe Illustrator 19.0.0, SVG Export Plug-In . SVG Version: 6.00 Build 0)  -->
<svg version="1.1" id="Layer_1" xmlns="http://www.w3.org/2000/svg" xmlns:xlink="http://www.w3.org/1999/xlink" x="0px" y="0px"
	 viewBox="0 0 512 512" style="enable-background:new 0 0 512 512;" xml:space="preserve">
<path style="fill:#AFF2D8;" d="M202.105,340.884c0,53.578-43.433,97.011-97.011,97.011S8.084,394.462,8.084,340.884
	s43.433-97.011,97.011-97.011S202.105,287.306,202.105,340.884z M401.516,233.095c-56.554,0-102.4,45.846-102.4,102.4
	s45.846,102.4,102.4,102.4s102.4-45.846,102.4-102.4S458.07,233.095,401.516,233.095z"/>
<path style="fill:#87CEB7;" d="M202.105,340.884c0,53.578-43.433,97.011-97.011,97.011c-5.509,0-10.909-0.467-16.168-1.348
	c45.881-7.698,80.842-47.593,80.842-95.662s-34.962-87.964-80.842-95.662c5.259-0.883,10.659-1.348,16.168-1.348
	C158.673,243.874,202.105,287.306,202.105,340.884z M401.516,233.095c-5.503,0-10.901,0.44-16.168,1.275
	c48.871,7.752,86.232,50.074,86.232,101.125s-37.361,93.373-86.232,101.125c5.268,0.835,10.666,1.275,16.168,1.275
	c56.554,0,102.4-45.846,102.4-102.4S458.07,233.095,401.516,233.095z"/>
<path style="fill:#C3FFF9;" d="M169.768,340.884c0,35.718-28.955,64.674-64.674,64.674s-64.674-28.955-64.674-64.674
	s28.955-64.674,64.674-64.674S169.768,305.166,169.768,340.884z M401.516,265.432c-38.694,0-70.063,31.369-70.063,70.063
	s31.369,70.063,70.063,70.063s70.063-31.369,70.063-70.063S440.211,265.432,401.516,265.432z"/>
<path style="fill:#DCFFF9;" d="M428.463,335.495c0,31.171-20.361,57.574-48.505,66.669c-28.144-9.094-48.505-35.497-48.505-66.669
	s20.361-57.574,48.505-66.669C408.102,277.921,428.463,304.324,428.463,335.495z M83.537,279.906
	c-25.116,8.88-43.116,32.822-43.116,60.979s18,52.099,43.116,60.979c25.116-8.88,43.116-32.822,43.116-60.979
	S108.653,288.785,83.537,279.906z"/>
<g>
	<path style="fill:#6DB2A5;" d="M266.779,330.105L266.779,330.105c0,11.906-9.651,21.558-21.558,21.558H105.095
		c-11.906,0-21.558-9.651-21.558-21.558l0,0c0-11.906,9.651-21.558,21.558-21.558h140.126
		C257.127,308.547,266.779,318.199,266.779,330.105z"/>
	<path style="fill:#6DB2A5;" d="M228.639,189.979L228.639,189.979c0,11.906-9.651,21.558-21.558,21.558h-58.87
		c-11.906,0-21.558-9.651-21.558-21.558l0,0c0-11.906,9.651-21.558,21.558-21.558h58.869
		C218.986,168.421,228.639,178.073,228.639,189.979z"/>
</g>
<path style="fill:#87CEB7;" d="M207.081,168.421c7.974,0,14.921,4.342,18.651,10.779c-3.73,6.437-10.675,10.779-18.651,10.779
	h-58.87c-7.974,0-14.921-4.342-18.651-10.779c3.73-6.437,10.675-10.779,18.651-10.779H207.081z"/>
<path style="fill:#A88D68;" d="M385.347,186.386c0,13.891-9.651,25.151-21.558,25.151h-43.116
	c-11.906,0-21.558-11.261-21.558-25.151v-50.302h86.232V186.386z"/>
<path style="fill:#7C654C;" d="M385.347,136.084L385.347,136.084c0,11.906-9.651,21.558-21.558,21.558h-43.116
	c-11.906,0-21.558-9.651-21.558-21.558l0,0c0-11.906,9.651-21.558,21.558-21.558h43.116
	C375.696,114.526,385.347,124.178,385.347,136.084z"/>
<path style="fill:#B79C79;" d="M363.789,186.386c0,13.891-7.239,25.151-16.168,25.151h-32.337c-8.929,0-16.168-11.261-16.168-25.151
	v-50.302h64.674V186.386z"/>
<path style="fill:#93795A;" d="M363.789,136.084v21.558h-43.116c-11.906,0-21.558-9.651-21.558-21.558l0,0
	c0-11.906,9.651-21.558,21.558-21.558h21.558C354.138,114.526,363.789,124.178,363.789,136.084z"/>
<path d="M401.516,220.968c-17.763,0-34.557,4.212-49.441,11.692l-11.826-17.081h23.54c16.345,0,29.642-14.909,29.642-33.235v-50.302
	c0-16.345-13.297-29.642-29.642-29.642h-13.592c0.079-0.89,0.119-1.788,0.119-2.695c0-16.345-13.297-29.642-29.642-29.642
	c-4.465,0-8.084,3.62-8.084,8.084s3.62,8.084,8.084,8.084c7.43,0,13.474,6.044,13.474,13.474c0,0.917-0.089,1.817-0.266,2.695
	h-13.207c-9.185,0-17.408,4.199-22.849,10.779H256c-7.43,0-13.474-6.044-13.474-13.474c0-4.465-3.62-8.084-8.084-8.084
	c-4.465,0-8.084,3.62-8.084,8.084c0,16.345,13.297,29.642,29.642,29.642h35.153c-0.081,0.887-0.122,1.787-0.122,2.695v50.302
	c0,5.532,1.212,10.752,3.353,15.346l-38.315,71.156l-38.266-55.273c11.059-4.307,18.918-15.071,18.918-27.636
	c0-16.345-13.297-29.642-29.642-29.642h-58.869c-16.345,0-29.642,13.297-29.642,29.642s13.297,29.642,29.642,29.642h7.194
	l-12.504,23.22c-11.841-4.577-24.618-7.052-37.806-7.052C47.145,231.747,0,278.892,0,336.842c0,37.396,19.637,70.295,49.137,88.926
	H8.084c-4.465,0-8.084,3.62-8.084,8.084c0,4.465,3.62,8.084,8.084,8.084h97.011c51.217,0,94.458-36.586,103.409-86.232h36.717
	c16.345,0,29.642-13.297,29.642-29.642c0-11.764-6.889-21.949-16.843-26.735l47.585-88.372c4.395,2.92,9.516,4.605,14.978,4.623
	l17.584,25.398c-28.483,20.005-47.135,53.102-47.135,90.475c0,39.876,21.237,74.886,52.99,94.316H256
	c-4.465,0-8.084,3.62-8.084,8.084c0,4.465,3.62,8.084,8.084,8.084h145.516c60.922,0,110.484-49.563,110.484-110.484
	S462.437,220.968,401.516,220.968z M247.466,284.824l-6.244,11.597h-39.088c-9.041-21.7-24.948-39.31-44.627-50.643l16.26-30.199
	h25.76L247.466,284.824z M148.211,199.411c-7.43,0-13.474-6.044-13.474-13.474s6.044-13.474,13.474-13.474h58.869
	c7.43,0,13.474,6.044,13.474,13.474s-6.044,13.474-13.474,13.474h-3.267c-0.038,0-0.075,0-0.113,0h-34.595
	c-0.106-0.001-0.21-0.001-0.317,0H148.211z M149.84,260.016c14.554,8.48,26.639,21.031,34.492,36.405h-54.094L149.84,260.016z
	 M258.695,326.063c0,7.43-6.044,13.474-13.474,13.474h-43.609c-0.072-0.001-0.144-0.001-0.217,0h-32.361
	c-0.114-0.002-0.227-0.002-0.34,0h-31.263c-4.465,0-8.084,3.62-8.084,8.084s3.62,8.084,8.084,8.084h21.053
	c-7.817,22.34-28.941,37.726-53.39,37.726c-31.204,0-56.589-25.385-56.589-56.589s25.386-56.589,56.589-56.589
	c4.465,0,8.084-3.62,8.084-8.084c0-4.465-3.62-8.084-8.084-8.084c-40.119,0-72.758,32.639-72.758,72.758S64.975,409.6,105.095,409.6
	c33.355,0,61.899-22.284,70.295-53.895h16.635c-8.694,40.52-44.591,70.063-86.929,70.063c-49.036,0-88.927-39.892-88.927-88.926
	s39.892-88.926,88.926-88.926c10.45,0,20.595,1.837,30.07,5.25l-23.29,43.255h-6.78c-16.345,0-29.642,13.297-29.642,29.642
	s13.297,29.642,29.642,29.642c4.465,0,8.084-3.62,8.084-8.084s-3.62-8.084-8.084-8.084c-7.43,0-13.474-6.044-13.474-13.474
	s6.044-13.474,13.474-13.474h11.442c0.106,0.002,0.211,0.002,0.317,0h79.542c0.126,0.003,0.252,0.003,0.378,0h48.447
	C252.651,312.589,258.695,318.633,258.695,326.063z M407.417,312.599l-27.236-39.342c6.654-2.447,13.842-3.784,21.335-3.784
	c34.176,0,61.979,27.803,61.979,61.979s-27.803,61.98-61.979,61.98s-61.979-27.803-61.979-61.979
	c0-20.873,10.371-39.369,26.232-50.606l28.354,40.956c3.073,4.44,4.697,9.64,4.697,15.04c0,4.465,3.62,8.084,8.084,8.084
	c4.465,0,8.084-3.62,8.084-8.084C414.989,328.139,412.371,319.755,407.417,312.599z M320.674,118.568h43.116
	c7.43,0,13.474,6.044,13.474,13.474c0,7.43-6.044,13.474-13.474,13.474h-43.116c-7.43,0-13.474-6.044-13.474-13.474
	S313.244,118.568,320.674,118.568z M320.674,199.411c-7.43,0-13.474-7.656-13.474-17.066v-23.902
	c4.044,2.072,8.625,3.242,13.474,3.242h43.116c4.848,0,9.429-1.171,13.474-3.242v23.902c0,9.41-6.044,17.066-13.474,17.066H320.674z
	 M401.516,425.768c-52.006,0-94.316-42.31-94.316-94.316c0-31.872,15.894-60.103,40.169-77.185l9.201,13.289
	c-20.07,14.158-33.201,37.522-33.201,63.895c0,43.091,35.056,78.147,78.147,78.147s78.147-35.056,78.147-78.147
	s-35.056-78.147-78.147-78.147c-10.922,0-21.326,2.251-30.776,6.315l-9.356-13.514c12.185-5.753,25.788-8.97,40.132-8.97
	c52.006,0,94.316,42.31,94.316,94.316S453.522,425.768,401.516,425.768z"/>
<g>
</g>
<g>
</g>
<g>
</g>
<g>
</g>
<g>
</g>
<g>
</g>
<g>
</g>
<g>
</g>
<g>
</g>
<g>
</g>
<g>
</g>
<g>
</g>
<g>
</g>
<g>
</g>
<g>
</g>
</svg>
