<?xml version="1.0" encoding="utf-8"?>
<!-- Generator: Adobe Illustrator 28.2.0, SVG Export Plug-In . SVG Version: 6.00 Build 0)  -->
<svg version="1.1" id="Layer_1" xmlns="http://www.w3.org/2000/svg" xmlns:xlink="http://www.w3.org/1999/xlink" x="0px" y="0px"
	 viewBox="0 0 512 512" style="enable-background:new 0 0 512 512;" xml:space="preserve">
<style type="text/css">
	.st0{fill:#FFFFFF;}
	.st1{fill:none;}
	.st2{fill:#6DB2A5;}
	.st3{fill:#B79C79;}
</style>
<rect x="0" class="st0" width="512" height="512"/>
<g>
	<path class="st1" d="M368.7,241.4c-0.9,0-1.9,0-2.8,0.1c-10.1,0.4-19.7,2.8-28.3,6.9l7.2,10.5c7.3-3.1,15.4-4.9,23.8-4.9
		c12.3,0,23.8,3.7,33.4,10.1c16.3,10.9,27.1,29.4,27.1,50.4c0,15.6-5.9,29.8-15.6,40.5c-11.1,12.3-27.1,20-44.9,20
		c-33.4,0-60.5-27.1-60.5-60.5c0-20.4,10.2-38.5,25.7-49.5l-7.1-10.3c-18.8,13.2-31.1,35.1-31.1,59.8c0,40.3,32.8,73,73,73
		c5.2,0,10.3-0.6,15.2-1.6c33-7,57.8-36.4,57.8-71.4C441.7,274.2,409,241.4,368.7,241.4z"/>
	<path class="st1" d="M192.3,224.7l-12.6,23.4c15.2,8.8,27.6,22.4,34.6,39.2h30.3l4.8-9l-37.1-53.6H192.3z"/>
	<path class="st1" d="M188.5,212.2c0.1,0,0.2,0,0.2,0h26.8c0,0,0.1,0,0.1,0h2.5c5.8,0,10.4-4.7,10.4-10.4c0-0.2,0-0.4,0-0.5
		c-0.3-5.5-4.8-9.9-10.4-9.9h-45.6c-5.6,0-10.1,4.4-10.4,9.9c0,0.2,0,0.4,0,0.5c0,5.8,4.7,10.4,10.4,10.4H188.5z"/>
	<path class="st1" d="M247.7,299.8H211c0.3,1.1,0.6,2.1,0.9,3.2c-0.3-1.1-0.6-2.1-0.9-3.2h-0.9c-0.1,0-0.2,0-0.3,0H186h-1.8h-33.4
		h-2.5c-0.1,0-0.2,0-0.2,0h-8.9c-5.8,0-10.4,4.7-10.4,10.4s4.7,10.4,10.4,10.4c3.5,0,6.3,2.8,6.3,6.3c0,1.1-0.3,2.2-0.8,3.1
		c-1.1,1.9-3.1,3.1-5.4,3.1c-12.7,0-23-10.3-23-23c0-12.7,10.3-23,23-23h3h2.3l7.5-14l6.6-12.2l3.9-7.3c-7.3-2.6-15.2-4.1-23.3-4.1
		c-1.1,0-2.2,0-3.3,0.1c-36.4,1.7-65.6,31.9-65.6,68.8c0,38,30.9,68.9,68.9,68.9c4.7,0,9.3-0.5,13.7-1.4c26.6-5.3,47.9-26,53.6-52.9
		h-12.9c-2.4,9.1-7,17.2-13.2,23.8c-10.3,11.1-25.1,17.9-41.3,17.9c-31.1,0-56.3-25.3-56.3-56.3c0-31.1,25.3-56.3,56.3-56.3
		c3.5,0,6.3,2.8,6.3,6.3c0,1.3-0.4,2.4-1,3.4c-1.1,1.7-3,2.9-5.2,2.9c-4.2,0-8.2,0.6-12,1.7c-18.4,5.2-31.8,22.1-31.8,42.1
		c0,22.8,17.6,41.6,39.9,43.6c1.3,0.1,2.6,0.2,4,0.2c18.9,0,35.3-11.9,41.3-29.2h-16.3c-2.3,0-4.3-1.3-5.4-3.1
		c-0.5-0.9-0.8-2-0.8-3.1c0-3.5,2.8-6.3,6.3-6.3h24.2c0.1,0,0.2,0,0.3,0h0.5h0h24.5c0.1,0,0.1,0,0.2,0h0.4h33.4
		c5.8,0,10.4-4.7,10.4-10.4S253.4,299.8,247.7,299.8z"/>
	<path class="st1" d="M180.9,287.3h19.6c-6.1-11.9-15.4-21.6-26.7-28.2l-5.6,10.5l-4.5,8.4l-5,9.3h16.9H180.9z"/>
	<path class="st1" d="M337.7,212.2h1.8c5.8,0,10.4-5.9,10.4-13.2v-18.5c-3.1,1.6-6.7,2.5-10.4,2.5h-33.4c-3.8,0-7.3-0.9-10.4-2.5
		V199c0,7.3,4.7,13.2,10.4,13.2H337.7z"/>
	<path class="st1" d="M306.1,170.4h33.4h0c4.7,0,8.6-3.1,10-7.3c0.3-1,0.5-2,0.5-3.1c0-5.8-4.7-10.4-10.4-10.4h-7h-26.4
		c-5.8,0-10.4,4.7-10.4,10.4c0,1.1,0.2,2.1,0.5,3.1C297.5,167.4,301.4,170.4,306.1,170.4z"/>
	<path class="st1" d="M372.9,324.9c-3.5,0-6.3-2.8-6.3-6.3c0-4.2-1.3-8.2-3.6-11.6l-22-31.7c-12.3,8.7-20.3,23-20.3,39.2
		c0,25.5,20,46.5,45.2,47.9c0.9,0.1,1.8,0.1,2.8,0.1c26.5,0,48-21.5,48-48c0-26.5-21.5-48-48-48c-4,0-7.9,0.5-11.6,1.4
		c-1.7,0.4-3.3,0.9-4.9,1.5l21.1,30.5c3.8,5.5,5.9,12,5.9,18.8C379.1,322.1,376.3,324.9,372.9,324.9z"/>
	<path class="st2" d="M211,299.8L211,299.8c0.3,1.1,0.6,2.1,0.9,3.2C211.6,301.9,211.3,300.9,211,299.8z"/>
	<line class="st3" x1="339.5" y1="170.4" x2="339.5" y2="170.4"/>
	<path d="M368.7,228.9c-13.8,0-26.8,3.3-38.3,9.1l-9.2-13.2h18.2c12.7,0,23-11.5,23-25.7v-39c0-12.7-10.3-23-23-23h-10.5
		c0.1-0.7,0.1-1.4,0.1-2.1c0-12.7-10.3-23-23-23c-3.5,0-6.3,2.8-6.3,6.3c0,3.5,2.8,6.3,6.3,6.3c5.8,0,10.4,4.7,10.4,10.4
		c0,0.7-0.1,1.4-0.2,2.1h-10.2c-7.1,0-13.5,3.3-17.7,8.3H256c-5.8,0-10.4-4.7-10.4-10.4c0-3.5-2.8-6.3-6.3-6.3
		c-3.5,0-6.3,2.8-6.3,6.3c0,12.7,10.3,23,23,23h27.2c-0.1,0.7-0.1,1.4-0.1,2.1v39c0,4.3,0.9,8.3,2.6,11.9l-29.7,55.1l-29.6-42.8
		c8.6-3.3,14.7-11.7,14.7-21.4c0-12.7-10.3-23-23-23h-45.6c-12.7,0-23,10.3-23,23c0,12.7,10.3,23,23,23h5.6l-9.7,18
		c-9.2-3.5-19.1-5.5-29.3-5.5c-44.9,0-81.4,36.5-81.4,81.4c0,29,15.2,54.4,38.1,68.9H64c-3.5,0-6.3,2.8-6.3,6.3
		c0,3.5,2.8,6.3,6.3,6.3h75.1c39.7,0,73.2-28.3,80.1-66.8h28.4c12.7,0,23-10.3,23-23c0-9.1-5.3-17-13-20.7l36.9-68.4
		c3.4,2.3,7.4,3.6,11.6,3.6l13.6,19.7c-22.1,15.5-36.5,41.1-36.5,70.1c0,30.9,16.4,58,41,73H256c-3.5,0-6.3,2.8-6.3,6.3
		c0,3.5,2.8,6.3,6.3,6.3h112.7c47.2,0,85.6-38.4,85.6-85.6S415.9,228.9,368.7,228.9z M247.7,320.7h-33.4h-0.4c-0.1,0-0.1,0-0.2,0
		h-24.5h0h-0.5c-0.1,0-0.2,0-0.3,0h-24.2c-3.5,0-6.3,2.8-6.3,6.3c0,1.1,0.3,2.2,0.8,3.1c1.1,1.9,3.1,3.1,5.4,3.1h16.3
		c-6.1,17.3-22.4,29.2-41.3,29.2c-1.3,0-2.7-0.1-4-0.2c-22.3-2-39.9-20.8-39.9-43.6c0-20,13.5-36.9,31.8-42.1
		c3.8-1.1,7.8-1.7,12-1.7c2.2,0,4.1-1.1,5.2-2.9c0.6-1,1-2.1,1-3.4c0-3.5-2.8-6.3-6.3-6.3c-31.1,0-56.3,25.3-56.3,56.3
		c0,31.1,25.3,56.3,56.3,56.3c16.2,0,30.9-6.8,41.3-17.9c6.1-6.6,10.7-14.7,13.2-23.8h12.9c-5.8,26.9-27,47.5-53.6,52.9
		c-4.4,0.9-9,1.4-13.7,1.4c-38,0-68.9-30.9-68.9-68.9c0-36.9,29.1-67.1,65.6-68.8c1.1-0.1,2.2-0.1,3.3-0.1c8.1,0,15.9,1.4,23.3,4.1
		l-3.9,7.3l-6.6,12.2l-7.5,14h-2.3h-3c-12.7,0-23,10.3-23,23c0,12.7,10.3,23,23,23c2.3,0,4.3-1.3,5.4-3.1c0.5-0.9,0.8-2,0.8-3.1
		c0-3.5-2.8-6.3-6.3-6.3c-5.8,0-10.4-4.7-10.4-10.4s4.7-10.4,10.4-10.4h8.9c0.1,0,0.2,0,0.2,0h2.5h33.4h1.8h23.9c0.1,0,0.2,0,0.3,0
		h0.9h0h36.6c5.8,0,10.4,4.7,10.4,10.4S253.4,320.7,247.7,320.7z M163.6,278l4.5-8.4l5.6-10.5c11.3,6.6,20.6,16.3,26.7,28.2h-19.6
		h-5.4h-16.9L163.6,278z M249.4,278.3l-4.8,9h-30.3c-7-16.8-19.3-30.4-34.6-39.2l12.6-23.4h19.9L249.4,278.3z M162.1,201.7
		c0-0.2,0-0.4,0-0.5c0.3-5.5,4.8-9.9,10.4-9.9h45.6c5.6,0,10.1,4.4,10.4,9.9c0,0.2,0,0.4,0,0.5c0,5.8-4.7,10.4-10.4,10.4h-2.5
		c0,0-0.1,0-0.1,0h-26.8c-0.1,0-0.2,0-0.2,0h-15.9C166.8,212.2,162.1,207.5,162.1,201.7z M383.9,385.9c-4.9,1-10,1.6-15.2,1.6
		c-40.3,0-73-32.8-73-73c0-24.7,12.3-46.5,31.1-59.8l7.1,10.3c-15.5,11-25.7,29.1-25.7,49.5c0,33.4,27.1,60.5,60.5,60.5
		c17.8,0,33.8-7.7,44.9-20c9.7-10.7,15.6-25,15.6-40.5c0-21-10.8-39.6-27.1-50.4c-9.6-6.4-21.1-10.1-33.4-10.1
		c-8.5,0-16.5,1.7-23.8,4.9l-7.2-10.5c8.6-4.1,18.2-6.5,28.3-6.9c0.9,0,1.8-0.1,2.8-0.1c40.3,0,73,32.8,73,73
		C441.7,349.5,416.9,378.9,383.9,385.9z M373.3,299.8l-21.1-30.5c1.6-0.6,3.2-1.1,4.9-1.5c3.7-0.9,7.6-1.4,11.6-1.4
		c26.5,0,48,21.5,48,48c0,26.5-21.5,48-48,48c-0.9,0-1.9,0-2.8-0.1c-25.2-1.4-45.2-22.4-45.2-47.9c0-16.2,8-30.5,20.3-39.2l22,31.7
		c2.4,3.4,3.6,7.5,3.6,11.6c0,3.5,2.8,6.3,6.3,6.3c3.5,0,6.3-2.8,6.3-6.3C379.1,311.9,377.1,305.4,373.3,299.8z M295.7,160
		c0-5.8,4.7-10.4,10.4-10.4h26.4h7c5.8,0,10.4,4.7,10.4,10.4c0,1.1-0.2,2.1-0.5,3.1c-1.3,4.2-5.3,7.3-10,7.3h0h-33.4
		c-4.7,0-8.6-3.1-10-7.3C295.8,162.1,295.7,161.1,295.7,160z M295.7,199v-18.5c3.1,1.6,6.7,2.5,10.4,2.5h33.4
		c3.8,0,7.3-0.9,10.4-2.5V199c0,7.3-4.7,13.2-10.4,13.2h-1.8h-31.6C300.3,212.2,295.7,206.2,295.7,199z"/>
</g>
</svg>
